# AST/ASF file generated using VICON BodyLanguage
# -----------------------------------------------
:version 1.10
:name VICON
:units
  mass 1.0
  length 0.45
  angle deg
:documentation
   .ast/.asf automatically generated from VICON data using
   VICON BodyBuilder and BodyLanguage model FoxedUp or BRILLIANT.MOD
:root
   order TX TY TZ RX RY RZ
   axis XYZ
   position 0 0 0  
   orientation 0 0 0 
:bonedata
  begin
     id 1 
     name lhipjoint
     direction 0.646821 -0.743844 0.168282 
     length 2.62284 
     axis 0 0 0  XYZ
  end
  begin
     id 2 
     name lfemur
     direction 0.34202 -0.939693 0  
     length 7.79098  
     axis 0 0 20  XYZ
    dof rx ry rz
    limits (-160.0 20.0)
           (-70.0 70.0)
           (-60.0 70.0)
  end
  begin
     id 3 
     name ltibia
     direction 0.34202 -0.939693 0   
     length 8.1986   
     axis 0 0 20   XYZ
    dof rx
    limits (-10.0 170.0)
  end
  begin
     id 4 
     name lfoot
     direction 0.0766762 -0.210666 0.974546   
     length 1.95107   
     axis -90 7.62852e-016 20   XYZ
    dof rx rz
    limits (-45.0 90.0)
           (-70.0 20.0)
  end
  begin
     id 5 
     name ltoes
     direction 1.53582e-011 -4.21539e-011 1   
     length 0.983514   
     axis -90 7.62852e-016 20   XYZ
    dof rx
    limits (-90.0 20.0)
  end
  begin
     id 6 
     name rhipjoint
     direction -0.658967 -0.733632 0.165972   
     length 2.65935  
     axis 0 0 0  XYZ 
  end
  begin
     id 7 
     name rfemur
     direction -0.34202 -0.939693 0   
     length 7.69405   
     axis 0 0 -20   XYZ
    dof rx ry rz
    limits (-160.0 20.0)
           (-70.0 70.0)
           (-70.0 60.0)
  end
  begin
     id 8 
     name rtibia
     direction -0.34202 -0.939693 0   
     length 8.15138   
     axis 0 0 -20   XYZ
    dof rx
    limits (-10.0 170.0)
 end
 begin
     id 9 
     name rfoot
     direction -0.0806473 -0.221577 0.971802   
     length 2.09362  
     axis -90 -7.62852e-016 -20   XYZ
    dof rx rz
    limits (-45.0 90.0)
           (-20.0 70.0)
  end
  begin
     id 10 
     name rtoes
     direction -1.53524e-011 -4.2203e-011 1   
     length 1.05224   
     axis -90 -7.62852e-016 -20   XYZ
    dof rx
    limits (-90.0 20.0)
  end
  begin
     id 11 
     name lowerback
     direction -0.0484271 0.997202 0.0569433   
     length 1.86801   
     axis 0 0 0   XYZ
    dof rx ry rz
    limits (-20.0 45.0)
           (-30.0 30.0)
           (-30.0 30.0)
  end
  begin
     id 12 
     name upperback
     direction 0.0148864 0.998882 0.0448682   
     length 1.86634   
     axis 0 0 0   XYZ
    dof rx ry rz
    limits (-20.0 45.0)
           (-30.0 30.0)
           (-30.0 30.0)
  end
  begin
     id 13 
     name thorax
     direction 0.0368776 0.99918 0.0167067   
     length 1.87554   
     axis 0 0 0   XYZ
    dof rx ry rz
    limits (-20.0 45.0)
           (-30.0 30.0)
           (-30.0 30.0)
  end
  begin
     id 14 
     name lowerneck
     direction -0.0200531 0.999751 0.00976032   
     length 1.82429   
     axis 0 0 0   XYZ
    dof rx ry rz
    limits (-20.0 45.0)
           (-30.0 30.0)
           (-30.0 30.0)
  end
  begin
     id 15 
     name upperneck
     direction 0.0113135 0.99728 -0.0728357   
     length 1.79098   
     axis 0 0 0   XYZ
    dof rx ry rz
    limits (-20.0 45.0)
           (-30.0 30.0)
           (-30.0 30.0)
  end
  begin
     id 16
     name head
     direction 0.00559662 0.999607 -0.0274604  
     length 1.88003  
     axis 0 0 0   XYZ
    dof rx ry rz
    limits (-20.0 45.0)
           (-30.0 30.0)
           (-30.0 30.0)
  end
  begin
     id 17 
     name lclavicle
     direction 0.931914 0.362632 -0.00585704  
     length 3.94155  
     axis 0 0 0   XYZ
    dof ry rz
    limits (-20.0 10.0)
           (0.0 20.0)
  end
  begin
     id 18 
     name lhumerus
     direction 1 -4.48969e-011 2.13403e-027   
     length 5.77473   
     axis 180 -30 -90   XYZ
    dof rx ry rz
    limits (-60.0 90.0)
           (-90.0 90.0)
           (-90.0 90.0)
  end
  begin
     id 19
     name lradius
     direction 1 -4.48969e-011 5.41017e-027   
     length 3.53732   
     axis 180 -30 -90   XYZ
    dof rx
    limits (-10.0 170.0)
  end
  begin
     id 20
     name lwrist
     direction 1 -4.48986e-011 1.36145e-026   
     length 1.76866   
     axis -8.75986e-015 90 90   XYZ
    dof ry
    limits (-180.0 0.0)
 end
  begin
     id 21 
     name lhand
     direction 1 -4.48703e-011 2.72291e-026   
     length 0.556229   
     axis -1.73745e-014 90 90   XYZ
    dof rx rz
    limits (-90.0 90.0)
           (-45.0 45.0)
  end
  begin
     id 22 
     name lfingers
     direction 1 -4.49204e-011 5.44582e-026   
     length 0.448446   
     axis -3.4749e-014 90 90   XYZ
    dof rx
    limits (0.0 90.0)
  end
  begin
     id 23
     name lthumb
     direction 0.707107 -6.34773e-011 0.707107   
     length 0.643881   
     axis -90 45 2.85299e-015   XYZ
    dof rx rz
    limits (-45.0 45.0)
           (-45.0 45.0)
  end
  begin
     id 24 
     name rclavicle
     direction -0.951782 0.300043 0.0639076   
     length 3.96398  
     axis 0 0 0   XYZ 
    dof ry rz
    limits (-10.0 20.0)
           (-20.0 0.0)
  end
  begin
     id 25 
     name rhumerus
     direction -1 -4.48967e-011 6.14867e-028  
     length 5.79581   
     axis 180 30 90   XYZ
    dof rx ry rz
    limits (-90.0 60.0)
           (-90.0 90.0)
           (-90.0 90.0)
  end
  begin
     id 26 
     name rradius
     direction -1 -4.48966e-011 9.26908e-027   
     length 3.37412   
     axis 180 30 90   XYZ
    dof rx
    limits (-10.0 170.0)
  end
  begin
     id 27 
     name rwrist
     direction -1 -4.48999e-011 1.36145e-026   
     length 1.68706   
     axis -8.75986e-015 -90 -90   XYZ
    dof ry
    limits (-180.0 0.0)
  end
  begin
     id 28
     name rhand
     direction -1 -4.49032e-011 2.72291e-026   
     length 0.680496   
     axis -1.73745e-014 -90 -90   XYZ
    dof rx rz
    limits (-90.0 90.0)
           (-45.0 45.0)
  end
  begin
     id 29
     name rfingers
     direction -1 -4.48876e-011 5.44582e-026   
     length 0.548633   
     axis -3.4749e-014 -90 -90   XYZ
    dof rx
    limits (0.0 90.0)
  end
  begin
     id 30
     name rthumb
     direction -0.707107 -6.34964e-011 0.707107   
     length 0.787731   
     axis -90 -45 -2.85299e-015   XYZ
    dof rx rz
    limits (-45.0 45.0)
           (-45.0 45.0)
  end
:hierarchy
  begin
    root lhipjoint rhipjoint lowerback
    lhipjoint lfemur
    lfemur ltibia
    ltibia lfoot
    lfoot ltoes
    rhipjoint rfemur
    rfemur rtibia
    rtibia rfoot
    rfoot rtoes
    lowerback upperback
    upperback thorax
    thorax lowerneck lclavicle rclavicle
    lowerneck upperneck
    upperneck head
    lclavicle lhumerus
    lhumerus lradius
    lradius lwrist
    lwrist lhand lthumb
    lhand lfingers
    rclavicle rhumerus
    rhumerus rradius
    rradius rwrist
    rwrist rhand rthumb
    rhand rfingers
  end

#!OML:ASF H:\Terrain\Patient Classification 1\PaulMetrics\March1\PaulMetrics.ASF
:FULLY-SPECIFIED
:DEGREES
63
root 24.2062 17.9523 -14.2464 11.8537 -9.6704 0.431097
lowerback -3.31684 -0.567375 -2.13083
upperback -4.7812 -0.682328 2.92648
thorax -3.01003 -0.223213 4.21742
lowerneck -3.1921 3.15775 -0.766407
upperneck 7.02051 4.46375 -2.66969
head 2.83493 2.10888 -0.571046
rclavicle 3.35449e-015 -3.02153e-014
rhumerus -49.2846 20.0435 -92.0846
rradius 43.9131
rwrist -10.2632
rhand -13.0599 -33.421
rfingers 7.12502
rthumb 13.0355 -62.9937
lclavicle 3.35449e-015 -3.02153e-014
lhumerus -50.0076 -18.3434 97.0718
lradius 49.969
lwrist 6.44474
lhand -21.1731 -9.45782
lfingers 7.12502
lthumb 5.20723 20.4582
rfemur -33.2182 1.51847 25.8971
rtibia 34.7404
rfoot -14.1117 -14.8307
rtoes -19.5009
lfemur -20.8657 2.67881 -17.6346
ltibia 65.9304
lfoot 4.24976 0.773127
ltoes -7.42092
64
root 24.149 17.975 -14.0914 11.8785 -9.91199 0.457478
lowerback -3.38943 -0.45927 -2.21892
upperback -4.83912 -0.536951 2.86463
thorax -3.0426 -0.147148 4.20409
lowerneck -3.22538 3.24245 -1.00738
upperneck 7.08673 4.55949 -2.19559
head 2.84397 2.16479 -0.373626
rclavicle 4.25648e-014 2.70347e-014
rhumerus -49.051 19.9232 -91.8403
rradius 44.1127
rwrist -10.4451
rhand -13.8957 -33.2577
rfingers 7.12502
rthumb 12.2296 -62.8802
lclavicle 4.25648e-014 2.70347e-014
lhumerus -50.345 -17.9453 96.9777
lradius 48.6138
lwrist 6.12043
lhand -21.6148 -9.91275
lfingers 7.12502
lthumb 4.78075 20.0133
rfemur -32.5748 1.632 25.9308
rtibia 34.5795
rfoot -14.7701 -14.6281
rtoes -18.4732
lfemur -22.2129 2.79458 -17.8287
ltibia 67.0043
lfoot 2.99787 0.869697
ltoes -9.24729
65
root 24.0907 17.9996 -13.9361 11.8251 -10.1292 0.601835
lowerback -3.5932 -0.347059 -2.33921
upperback -4.76323 -0.386934 2.69964
thorax -2.86277 -0.0753154 4.09915
lowerneck -3.19479 3.24773 -1.18646
upperneck 6.9288 4.54251 -1.78082
head 2.76808 2.16796 -0.213258
rclavicle -7.74018e-015 -4.77083e-015
rhumerus -48.5813 19.6175 -91.4132
rradius 44.3462
rwrist -10.1857
rhand -13.575 -32.9371
rfingers 7.12502
rthumb 12.5389 -62.5409
lclavicle -7.74018e-015 -4.77083e-015
lhumerus -50.5487 -17.6062 96.7505
lradius 47.3473
lwrist 5.69402
lhand -21.4679 -9.99556
lfingers 7.12502
lthumb 4.92258 19.9273
rfemur -31.8289 1.77464 25.8346
rtibia 34.3395
rfoot -15.2803 -14.6964
rtoes -18.1748
lfemur -23.4791 2.78125 -18.1542
ltibia 67.8876
lfoot 2.12836 0.809686
ltoes -10.9255
66
root 24.0295 18.0152 -13.7917 11.6569 -10.4169 0.571548
lowerback -3.54113 -0.256125 -2.41505
upperback -4.69356 -0.266956 2.61596
thorax -2.8302 -0.0157679 4.056
lowerneck -3.36779 3.22045 -0.427813
upperneck 7.08952 4.52126 -2.5109
head 2.89621 2.14946 -0.572591
rclavicle 7.45443e-015 3.02153e-014
rhumerus -48.2785 19.6423 -91.2386
rradius 44.6659
rwrist -10.2756
rhand -13.1224 -33.6229
rfingers 7.12502
rthumb 12.9752 -63.1994
lclavicle 7.45443e-015 3.02153e-014
lhumerus -50.5612 -16.7691 96.1955
lradius 45.9149
lwrist 4.99906
lhand -21.2045 -9.99254
lfingers 7.12502
lthumb 5.17689 19.9242
rfemur -30.9508 2.15156 25.924
rtibia 34.0966
rfoot -15.6436 -14.9357
rtoes -17.9739
lfemur -24.6357 2.91594 -18.275
ltibia 68.6009
lfoot 1.5919 0.698712
ltoes -8.983
67
root 23.972 18.0285 -13.6463 11.6064 -10.7547 0.47491
lowerback -3.50387 -0.193356 -2.47368
upperback -4.7178 -0.182923 2.61312
thorax -2.88402 0.0294518 4.08758
lowerneck -3.53597 3.28095 0.106735
upperneck 7.33607 4.62023 -3.06235
head 3.04582 2.1893 -0.834676
rclavicle 2.43201e-014 -1.90833e-014
rhumerus -48.0845 19.7799 -91.2275
rradius 44.8467
rwrist -10.7677
rhand -13.6162 -34.4459
rfingers 7.12502
rthumb 12.4992 -64.0521
lclavicle 2.43201e-014 -1.90833e-014
lhumerus -50.7296 -15.7417 95.6068
lradius 44.6165
lwrist 4.21405
lhand -21.3771 -10.1067
lfingers 7.12502
lthumb 5.01023 19.8141
rfemur -30.2145 2.53678 26.0723
rtibia 33.9026
rfoot -15.9392 -15.0098
rtoes -17.5763
lfemur -25.8445 3.11261 -18.3502
ltibia 69.1247
lfoot 0.94452 -0.227663
ltoes -13.0879
68
root 23.9186 18.0452 -13.4897 11.6655 -10.9991 0.722721
lowerback -3.8263 -0.0930482 -2.70141
upperback -4.69401 -0.0429541 2.4796
thorax -2.69173 0.100402 4.07816
lowerneck -3.73285 3.35643 -0.129365
upperneck 7.40841 4.72137 -2.80559
head 3.09426 2.2393 -0.70315
rclavicle -1.56046e-014 -4.21423e-014
rhumerus -47.6963 19.4847 -90.8434
rradius 45.0429
rwrist -11.1438
rhand -14.7323 -34.545
rfingers 7.12502
rthumb 11.4229 -64.2139
lclavicle -1.56046e-014 -4.21423e-014
lhumerus -51.0064 -15.1787 95.2849
lradius 43.6718
lwrist 4.1081
lhand -21.0669 -9.28318
lfingers 7.12502
lthumb 5.30971 20.6303
rfemur -29.6409 2.60941 25.8786
rtibia 33.7454
rfoot -16.0498 -15.171
rtoes -19.1578
lfemur -27.0549 3.02441 -18.8123
ltibia 69.4317
lfoot -0.250581 -0.558561
ltoes -11.7949
69
root 23.8642 18.0614 -13.3376 11.7197 -11.1536 1.11969
lowerback -4.07303 -0.0165015 -3.03149
upperback -4.7288 0.0666732 2.25825
thorax -2.60095 0.160381 4.03638
lowerneck -3.64469 3.38542 -0.464335
upperneck 7.24205 4.74077 -2.34586
head 2.99662 2.25905 -0.499142
rclavicle -1.0666e-014 7.95139e-016
rhumerus -47.4601 19.2109 -90.5321
rradius 45.461
rwrist -11.5683
rhand -15.8973 -34.0758
rfingers 7.12502
rthumb 10.2993 -63.8036
lclavicle -1.0666e-014 7.95139e-016
lhumerus -51.3427 -14.8953 95.0271
lradius 42.5896
lwrist 3.89386
lhand -21.0057 -8.46594
lfingers 7.12502
lthumb 5.36881 21.4461
rfemur -29.0921 2.67314 25.5363
rtibia 33.5672
rfoot -16.2793 -15.4955
rtoes -20.8789
lfemur -28.2848 2.80359 -19.4312
ltibia 69.5604
lfoot -1.37523 -0.797542
ltoes -10.8117
70
root 23.8133 18.0709 -13.1951 11.7678 -11.3921 1.1025
lowerback -4.05415 0.0798241 -2.92568
upperback -4.83601 0.189912 2.10879
thorax -2.73222 0.220368 3.82332
lowerneck -3.31073 3.38536 -0.549959
upperneck 6.98846 4.71356 -2.06275
head 2.83628 2.25874 -0.402907
rclavicle 2.08072e-014 1.66979e-014
rhumerus -47.319 19.0035 -90.4451
rradius 45.788
rwrist -11.5926
rhand -16.1995 -34.0484
rfingers 7.12502
rthumb 10.0077 -63.7904
lclavicle 2.08072e-014 1.66979e-014
lhumerus -51.7214 -14.5911 94.6815
lradius 41.2107
lwrist 3.06562
lhand -22.1934 -9.21162
lfingers 7.12502
lthumb 4.22199 20.7263
rfemur -28.4816 2.99524 25.6048
rtibia 33.3286
rfoot -16.6443 -15.7786
rtoes -21.4647
lfemur -29.5191 2.8187 -19.6424
ltibia 69.5958
lfoot -2.43285 -0.995498
ltoes -11.7463
71
root 23.7674 18.0823 -13.0463 11.8256 -11.6589 0.882014
lowerback -4.03175 0.160315 -2.63558
upperback -4.95352 0.290432 2.08048
thorax -2.87237 0.265016 3.63158
lowerneck -3.42549 3.42535 -0.339051
upperneck 7.24599 4.77199 -2.19285
head 2.95579 2.28498 -0.474226
rclavicle -1.71607e-014 -6.36111e-015
rhumerus -47.2596 18.951 -90.2789
rradius 46.1517
rwrist -11.1898
rhand -16.3909 -35.1409
rfingers 7.12502
rthumb 9.82305 -64.8918
lclavicle -1.71607e-014 -6.36111e-015
lhumerus -52.1408 -13.8409 94.176
lradius 40.2774
lwrist 3.01189
lhand -22.7462 -10.022
lfingers 7.12502
lthumb 3.68818 19.9259
rfemur -27.7745 3.26597 25.8689
rtibia 33.016
rfoot -16.9802 -15.7408
rtoes -21.0262
lfemur -30.7333 2.84145 -19.6428
ltibia 69.5431
lfoot -3.44583 -1.00968
ltoes -12.6004
72
root 23.7196 18.0978 -12.8916 11.9079 -11.7838 0.70681
lowerback -4.09286 0.159572 -2.48671
upperback -5.04722 0.287952 2.11238
thorax -2.93419 0.261618 3.58101
lowerneck -3.68301 3.52855 -0.413232
upperneck 7.59639 4.91305 -2.01049
head 3.11762 2.35328 -0.389563
rclavicle -1.68043e-014 2.38542e-015
rhumerus -47.3755 19.1099 -90.1254
rradius 46.8784
rwrist -11.2291
rhand -16.9512 -35.7628
rfingers 7.12502
rthumb 9.28244 -65.5384
lclavicle -1.68043e-014 2.38542e-015
lhumerus -52.5525 -12.8058 93.462
lradius 39.8244
lwrist 3.54945
lhand -21.3813 -9.29166
lfingers 7.12502
lthumb 5.0062 20.6292
rfemur -27.0177 3.27972 26.123
rtibia 32.6527
rfoot -17.5227 -15.3975
rtoes -19.0767
lfemur -31.937 2.64922 -19.6609
ltibia 69.3235
lfoot -4.43856 -1.09437
ltoes -14.5487
